<?xml version="1.0" encoding="utf-8"?>
<!-- Generator: Adobe Illustrator 25.4.1, SVG Export Plug-In . SVG Version: 6.00 Build 0)  -->
<svg version="1.1" id="Layer_1" xmlns="http://www.w3.org/2000/svg" xmlns:xlink="http://www.w3.org/1999/xlink" x="0px" y="0px"
	 viewBox="0 0 510.2 45.4" style="enable-background:new 0 0 510.2 45.4;" xml:space="preserve">
<style type="text/css">
	.st0{fill:#FFFFFF;}
</style>
<g id="Group_14" transform="translate(-221.536 -198.805)">
	<g id="Group_8">
		<path id="Path_42" class="st0" d="M576.7,242.5h-4.4l0-0.1l-14-36.5l-14.2,36.6h-4.4l0.1-0.2l16.4-40.7h4.5l0,0.1L576.7,242.5z"/>
	</g>
	<g id="Group_9">
		<path id="Path_43" class="st0" d="M513.2,242.5h-4.1v-40.9l0.1,0l4.1-2.8V242.5z"/>
	</g>
	<g id="Group_10">
		<path id="Path_44" class="st0" d="M464.4,243.4c-10.2,0-16.2-4.8-16.4-13v-0.1l4.1-0.7l0,0.1c0.1,6.7,4.6,10.1,13.2,10.1
			c4.1,0,10.6-2.2,10.6-8.1c0-3.5-2.7-5.9-8.3-7.2l-9.1-2.2c-4.3-1.1-9.3-3.2-9.3-9.9c0-1.2,0.4-11.6,14.1-11.6
			c7.1,0,14.5,3.6,15.1,11.6l0,0.1l-4.1,0.6l0-0.1c-0.5-5.2-4.8-8.6-10.9-8.6c-3,0-10.1,0.8-10.1,8c0,3.2,1.9,5.1,6.1,6.1l9.9,2.5
			c5.3,1.4,10.6,3.8,10.6,10.8C480.1,234.4,479,243.4,464.4,243.4z"/>
	</g>
	<g id="Group_13">
		<g id="Group_11">
			<path id="Path_45" class="st0" d="M391.3,242.5h-4.4l0.1-0.2l16.4-40.7h3.7L391.3,242.5z"/>
		</g>
		<g id="Group_12">
			<path id="Path_46" class="st0" d="M423.9,242.5h-4.4l0-0.1l-13-33.8l0,0l2-5.3L423.9,242.5z"/>
		</g>
	</g>
</g>
</svg>
