<?xml version="1.0" encoding="utf-8"?>
<!-- Generator: Adobe Illustrator 25.4.1, SVG Export Plug-In . SVG Version: 6.00 Build 0)  -->
<svg version="1.1" id="Layer_1" xmlns="http://www.w3.org/2000/svg" xmlns:xlink="http://www.w3.org/1999/xlink" x="0px" y="0px"
	 viewBox="0 0 612 792" style="enable-background:new 0 0 612 792;" xml:space="preserve">
<style type="text/css">
	.st0{fill:#FFFFFF;}
</style>
<g id="Group_14" transform="translate(-221.536 -198.805)">
	<g id="Group_8">
		<path id="Path_42" class="st0" d="M823.6,650.1h-13.7v-0.3l-43.5-113.4l-44.1,113.7h-13.7l0.3-0.6L759.9,523h14v0.3L823.6,650.1z"
			/>
	</g>
	<g id="Group_9">
		<path id="Path_43" class="st0" d="M626.3,650.1h-12.7V523h0.3l12.7-8.7v135.7H626.3z"/>
	</g>
	<g id="Group_10">
		<path id="Path_44" class="st0" d="M474.8,652.8c-31.7,0-50.3-14.9-50.9-40.4v-0.3l12.7-2.2v0.3c0.3,20.8,14.3,31.4,41,31.4
			c12.7,0,32.9-6.8,32.9-25.2c0-10.9-8.4-18.3-25.8-22.4l-28.3-6.8c-13.4-3.4-28.9-9.9-28.9-30.8c0-3.7,1.2-36,43.8-36
			c22.1,0,45,11.2,46.9,36v0.3l-12.7,1.9v-0.3c-1.6-16.2-14.9-26.7-33.9-26.7c-9.3,0-31.4,2.5-31.4,24.9c0,9.9,5.9,15.8,18.9,18.9
			l30.8,7.8c16.5,4.3,32.9,11.8,32.9,33.5C523.5,624.9,520.1,652.8,474.8,652.8z"/>
	</g>
	<g id="Group_13">
		<g id="Group_11">
			<path id="Path_45" class="st0" d="M247.7,650.1H234l0.3-0.6L285.3,523h11.5L247.7,650.1z"/>
		</g>
		<g id="Group_12">
			<path id="Path_46" class="st0" d="M348.9,650.1h-13.7v-0.3l-40.4-105l0,0l6.2-16.5L348.9,650.1z"/>
		</g>
	</g>
</g>
</svg>
