<?xml version="1.0" encoding="utf-8"?>
<!-- Generator: Adobe Illustrator 25.4.1, SVG Export Plug-In . SVG Version: 6.00 Build 0)  -->
<svg version="1.1" id="Layer_1" xmlns="http://www.w3.org/2000/svg" xmlns:xlink="http://www.w3.org/1999/xlink" x="0px" y="0px"
	 viewBox="0 0 510.2 45.4" style="enable-background:new 0 0 510.2 45.4;" xml:space="preserve">
<style type="text/css">
	.st0{fill:#FFFFFF;}
</style>
<g>
	<path class="st0" d="M84.2,42.7h-10l-12.6-18l-4,4.1v13.8h-7.8V2.1h7.8v16.3L72.9,2.1h10.6L67,19.1L84.2,42.7L84.2,42.7z
		 M117.7,35.5v7.2h-30V2.1h29.6v7.2H95.4V18h18.7v7.2H95.4v10.3H117.7L117.7,35.5z M141.2,42.7H133L119.6,2.1h8.2l9.3,31.2l9.2-31.2
		h8.2L141.2,42.7L141.2,42.7z M158.6,42.7V2.1h7.7v40.5H158.6L158.6,42.7z M196.7,42.7l-16.5-28.8v28.8h-7.7V2.1h9.3L198.2,31V2.1
		h7.8v40.5H196.7L196.7,42.7z M210.9,42.7v-8.2h8.3v8.2H210.9L210.9,42.7z M256.5,42.7V12.9l-8.2,29.7H240l-8.2-29.7v29.7h-7.6V2.1
		h11.4l8.5,30.4l8.5-30.4h11.5v40.5H256.5L256.5,42.7z M299.9,33.6c-0.7,2.1-1.7,3.8-3,5.3c-1.3,1.4-2.9,2.5-4.9,3.3
		c-1.9,0.8-4.2,1.2-6.8,1.2c-2.6,0-4.8-0.4-6.7-1.2c-1.9-0.8-3.6-1.9-4.9-3.3c-1.3-1.4-2.3-3.2-3-5.3c-0.7-2.1-1-4.4-1-7V2.1h7.7
		v24.7c0,6,2.6,9,7.9,9c5.3,0,7.9-3,7.9-9V2.1h7.8v24.5C301,29.2,300.6,31.5,299.9,33.6L299.9,33.6z M337.5,20
		c-1,1.5-2.4,2.7-4.1,3.5c1.4,0.8,2.5,1.9,3.3,3.3c0.8,1.4,1.1,3.2,1.1,5.3v5.7c0,0.7,0.1,1.6,0.3,2.6c0.2,1,0.4,1.8,0.6,2.3h-7.8
		c-0.2-0.5-0.4-1.2-0.6-1.9c-0.2-0.7-0.2-1.6-0.2-2.5V32c0-1.8-0.4-3-1.3-3.8c-0.8-0.8-2.2-1.2-4-1.2h-10.5v15.6h-7.7V2.1h18.5
		c4.2,0,7.6,1.1,10.1,3.2c2.5,2.1,3.8,5.1,3.8,8.9C339,16.6,338.5,18.5,337.5,20L337.5,20z M331.2,13.2c-0.1-0.6-0.3-1.2-0.7-1.8
		c-0.4-0.6-1-1.1-1.8-1.5c-0.8-0.4-2-0.6-3.6-0.6h-10.8v10.7h11c0.2,0,0.7,0,1.3-0.1c0.7-0.1,1.3-0.3,2-0.7c0.7-0.4,1.3-0.9,1.8-1.6
		c0.5-0.7,0.8-1.7,0.8-2.9C331.3,14.3,331.2,13.8,331.2,13.2L331.2,13.2z M373.5,20.4c-0.6,1.6-1.5,3-2.7,4.1
		c-1.1,1.1-2.5,2-4.2,2.7c-1.6,0.6-3.4,1-5.4,1h-9.5v14.5h-7.7V2.1h17c2.1,0,4,0.3,5.7,0.9c1.7,0.6,3.1,1.5,4.2,2.6
		c1.1,1.1,2,2.5,2.6,4.1c0.6,1.6,0.9,3.4,0.9,5.4C374.5,17.1,374.2,18.8,373.5,20.4L373.5,20.4z M365.2,10.7c-1-0.9-2.4-1.4-4.2-1.4
		h-9.3v11.8h9.3c1.8,0,3.2-0.5,4.2-1.4c1-0.9,1.5-2.4,1.5-4.5C366.8,13.2,366.3,11.7,365.2,10.7L365.2,10.7z M403.2,42.7V25.5H386
		v17.1h-7.8V2.1h7.8v16.2h17.3V2.1h7.7v40.5H403.2L403.2,42.7z M434.5,27.1v15.5h-7.8V27.1l-13.6-25h8.7l8.8,17.3l8.8-17.3h8.7
		L434.5,27.1L434.5,27.1z"/>
</g>
</svg>
