<?xml version="1.0" encoding="utf-8"?>
<!-- Generator: Adobe Illustrator 25.4.1, SVG Export Plug-In . SVG Version: 6.00 Build 0)  -->
<svg version="1.1" id="Layer_1" xmlns="http://www.w3.org/2000/svg" xmlns:xlink="http://www.w3.org/1999/xlink" x="0px" y="0px"
	 viewBox="0 0 612 792" style="enable-background:new 0 0 612 792;" xml:space="preserve">
<style type="text/css">
	.st0{fill:#FFFFFF;}
</style>
<polygon class="st0" points="360.2,429 541.3,631.8 404.4,631.8 223.1,429 404.4,226.3 541.3,226.3 "/>
<path class="st0" d="M222.7,673.6V35.1H82.2v490.5C82.2,634.5,132.5,671.4,222.7,673.6"/>
<g>
	<path class="st0" d="M91.6,737v16h-9v-46.8h9v18.9l17.6-18.9h12.3l-19,19.6l19.8,27.2h-11.6l-14.5-20.8L91.6,737z"/>
	<path class="st0" d="M159.8,753h-34.7v-46.8h34.2v8.3H134v10h21.6v8.3H134v11.9h25.8V753z"/>
	<path class="st0" d="M185.7,753h-9.6l-15.4-46.8h9.4l10.7,36.1l10.7-36.1h9.4L185.7,753z"/>
	<path class="st0" d="M213.5,753h-8.9v-46.8h8.9V753z"/>
	<path class="st0" d="M259.8,753h-10.7L230,719.7V753h-8.9v-46.8h10.7l19,33.3v-33.3h9V753z"/>
	<path class="st0" d="M275.6,753H266v-9.5h9.6V753z"/>
	<path class="st0" d="M327.8,753h-8.8v-34.3l-9.5,34.3H300l-9.5-34.3V753h-8.8v-46.8H295l9.8,35.1l9.8-35.1h13.3V753z"/>
	<path class="st0" d="M370.9,734.5c0,3-0.4,5.7-1.2,8.1c-0.8,2.4-1.9,4.4-3.4,6.1c-1.5,1.7-3.4,2.9-5.6,3.8
		c-2.2,0.9-4.9,1.4-7.8,1.4c-3,0-5.6-0.5-7.8-1.4c-2.2-0.9-4.1-2.2-5.6-3.8c-1.5-1.7-2.7-3.7-3.4-6.1s-1.1-5.1-1.1-8.1v-28.3h8.9
		v28.5c0,7,3,10.5,9.1,10.5c6.1,0,9.1-3.5,9.1-10.5v-28.5h9V734.5z"/>
	<path class="st0" d="M414.2,750.3c0.2,1.1,0.5,2,0.7,2.7h-9c-0.3-0.6-0.5-1.4-0.7-2.2c-0.2-0.9-0.3-1.8-0.3-2.9v-7.1
		c0-2-0.5-3.5-1.5-4.4c-1-0.9-2.5-1.4-4.6-1.4h-12.1V753h-8.9v-46.8h21.4c4.9,0,8.8,1.2,11.7,3.7c2.9,2.5,4.4,5.9,4.4,10.3
		c0,2.7-0.6,4.9-1.8,6.6c-1.2,1.7-2.8,3.1-4.8,4c1.7,0.9,2.9,2.2,3.8,3.8c0.9,1.6,1.3,3.7,1.3,6.2v6.5
		C413.9,748.2,414,749.2,414.2,750.3z M399.5,726.9c0.3,0,0.8-0.1,1.6-0.2c0.8-0.1,1.6-0.4,2.4-0.8c0.8-0.4,1.5-1.1,2.1-1.9
		c0.6-0.8,0.9-2,0.9-3.4c0-0.4,0-0.9-0.1-1.6c-0.1-0.7-0.3-1.4-0.8-2c-0.5-0.7-1.2-1.3-2.1-1.8c-1-0.5-2.4-0.7-4.1-0.7h-12.5v12.4
		H399.5z"/>
	<path class="st0" d="M456.8,721.3c0,2.2-0.4,4.2-1.1,6c-0.7,1.8-1.7,3.4-3.1,4.8c-1.3,1.3-2.9,2.4-4.8,3.1c-1.9,0.7-4,1.1-6.3,1.1
		h-11V753h-8.9v-46.8h19.7c2.4,0,4.6,0.4,6.5,1.1c1.9,0.7,3.6,1.7,4.9,3c1.3,1.3,2.3,2.9,3,4.8S456.8,719,456.8,721.3z M430.6,714.5
		v13.6h10.7c2.1,0,3.7-0.5,4.9-1.6c1.2-1.1,1.8-2.8,1.8-5.2s-0.6-4.1-1.8-5.2c-1.2-1.1-2.8-1.6-4.9-1.6H430.6z"/>
	<path class="st0" d="M499.4,753h-8.9v-19.8h-20V753h-9v-46.8h9V725h20v-18.8h8.9V753z"/>
	<path class="st0" d="M527.1,753h-9v-17.9l-15.7-28.9h10l10.1,20l10.2-20h10l-15.7,28.9V753z"/>
</g>
</svg>
