<?xml version="1.0" encoding="utf-8"?>
<!-- Generator: Adobe Illustrator 25.4.1, SVG Export Plug-In . SVG Version: 6.00 Build 0)  -->
<svg version="1.1" id="Layer_1" xmlns="http://www.w3.org/2000/svg" xmlns:xlink="http://www.w3.org/1999/xlink" x="0px" y="0px"
	 viewBox="0 0 30 30" style="enable-background:new 0 0 30 30;" xml:space="preserve">
<style type="text/css">
	.st0{fill:#FFFFFF;}
</style>
<g>
	<path class="st0" d="M23.8,9.4c0-0.7-0.1-2.8-1.5-4.7c-2.3-3.2-6.5-3.2-7.3-3.2c-0.7,0-5.1,0-7.5,3.3C6.3,6.7,6.3,8.7,6.3,9.4
		c0,0.7,0.1,2.9,1.5,4.9c2.3,3,6.3,3,7.2,3c0.8,0,5.1,0,7.4-3.3C23.8,12.1,23.8,10.1,23.8,9.4z M19.7,12.5c-1.5,2.2-4.2,2.2-4.7,2.2
		c-0.6,0-3.1,0-4.6-2c-0.9-1.3-1-2.7-1-3.3c0-0.5,0-2.4,1.3-3.7c0.8-0.8,1.7-1.1,1.9-1.2c0.9-0.3,1.8-0.3,2.1-0.3c0.1,0,0.1,0,0.2,0
		c0.3,0,1.2,0,1.9,0.1c0.1,0,1,0.2,1.8,0.8c1.8,1.3,1.9,3.9,1.9,4.3C20.5,10,20.5,11.3,19.7,12.5z"/>
	<rect x="5.1" y="19.7" class="st0" width="19.8" height="1"/>
	<polygon class="st0" points="5,24.1 6.8,29 7.8,29 8.9,25.1 10,29 11,29 12.9,24.1 11.8,24.1 10.6,28 9.5,24.1 8.3,24.1 7.3,28 
		6.2,24.1 	"/>
	<path class="st0" d="M16.9,24.1h-1.3L13.3,29h1.1l0.5-1h2.7l0.5,1h1.3L16.9,24.1z M15.3,27.1l1-2.1l1,2.1H15.3z"/>
	<polygon class="st0" points="21.7,29 22.8,29 22.8,27.1 25,24.1 23.8,24.1 22.3,26.3 20.8,24.1 19.5,24.1 21.7,27.1 	"/>
</g>
</svg>
