<?xml version="1.0" encoding="utf-8"?>
<!-- Generator: Adobe Illustrator 25.4.1, SVG Export Plug-In . SVG Version: 6.00 Build 0)  -->
<svg version="1.1" id="Layer_1" xmlns="http://www.w3.org/2000/svg" xmlns:xlink="http://www.w3.org/1999/xlink" x="0px" y="0px"
	 viewBox="0 0 612 792" style="enable-background:new 0 0 612 792;" xml:space="preserve">
<style type="text/css">
	.st0{fill:#FFFFFF;}
</style>
<g>
	<path class="st0" d="M99.3,282.3H3.8c-0.4,0-0.7,0.4-0.7,0.8L2,305.4h0.8c0.9-3.8,1.8-6.9,2.8-9.3c1.2-3,2.9-5.4,5-6.9
		c2.1-1.6,4.6-2.4,7.5-2.6c2.7-0.2,6-0.4,9.9-0.4h12.5c0.6,0,1.2,0.1,1.8,0.2c0.6,0.2,1.2,0.5,1.7,1c0.5,0.5,0.8,1.2,1,1.9
		c0.2,0.8,0.3,1.6,0.3,2.6v100.5c0,0.4,0.3,0.7,0.7,0.8c4,0,8-0.4,11.8-1v-97.8v-2.4c0-1,0.1-1.8,0.3-2.6c0.2-0.7,0.5-1.4,1.1-1.9
		c0.5-0.5,1-0.8,1.7-1c0.6-0.2,1.2-0.2,1.8-0.2h12.5c4,0,7.3,0.1,10,0.4c2.8,0.2,5.4,1.1,7.5,2.6c2.1,1.6,3.7,4,5,6.9
		c1,2.4,1.9,5.6,2.8,9.3h0.8l-1.1-22.3C100,282.7,99.7,282.3,99.3,282.3 M316.2,279.8c-0.3,0-1.3,0.1-2.7,0.2
		c-1.5,0.1-3.4,0.3-5.6,0.6c-2.2,0.3-4.8,0.6-7.7,1.1c-2.3,0.3-4.7,0.8-7.2,1.2l0.1,0.8c0.7-0.1,1.4-0.1,2-0.1
		c1.2,0,2.4,0.1,3.5,0.5c1.2,0.4,2.3,1,3.2,1.9c1,1,1.6,2.3,2,3.7c0.4,1.5,0.6,4.3,0.6,6.3v96.5c0,0.4,0.3,0.7,0.7,0.8
		c4,0,8-0.4,11.8-1V280.6C316.9,280.1,316.6,279.8,316.2,279.8 M333.4,327.7l45.6-45.9c-0.3,0-0.7,0-1.1,0c-1,0-2.1,0.1-3.2,0.1
		c-1.1,0.1-2.2,0.2-3.3,0.3c-1.1,0.1-2,0.4-2.7,0.6c-1.2,0.4-2.1,1-3.2,2.2L322,333.6l46,60.1c0.5,0.6,0.7,0.7,1.6,0.8
		c0.4,0,1.2,0,2.5,0c1.3,0,2.7-0.1,4.3-0.2c1.6-0.1,3.2-0.2,4.7-0.4c1.4-0.1,2.5-0.3,3.4-0.4l-51-65.5L333.4,327.7z M452.9,279.8
		c-0.3,0-1.3,0.1-2.7,0.2c-1.5,0.1-3.4,0.3-5.6,0.6c-2.2,0.3-4.8,0.6-7.7,1.1c-2.3,0.3-4.7,0.8-7.2,1.2l0.1,0.8
		c0.7-0.1,1.4-0.1,2-0.1c1.3,0,2.4,0.1,3.5,0.5c1.2,0.4,2.3,1,3.2,1.9c1,1,1.6,2.3,2,3.7c0.4,1.5,0.6,3.2,0.6,5.1l0,97.6
		c0,0.4,0.3,0.7,0.7,0.8c4,0,8-0.4,11.8-1V280.6C453.6,280.1,453.3,279.8,452.9,279.8 M193.9,281.1c-32,0-49.3,25.4-49.3,56.8
		c0,31.4,17.2,56.8,49.3,56.8c32,0,49.3-25.4,49.3-56.8C243.2,306.5,226,281.1,193.9,281.1 M195.6,391.1
		c-22.6,0.9-36.6-22.4-37.5-51.8c-0.9-29.4,11.6-53.8,34.2-54.7c22.6-0.9,36.6,22.4,37.5,51.8C230.7,365.9,218.2,390.3,195.6,391.1
		 M559.7,281.1c-32,0-49.3,25.4-49.3,56.8c0,31.4,17.2,56.8,49.3,56.8c32,0,49.3-25.4,49.3-56.8C609,306.5,591.7,281.1,559.7,281.1
		 M561.4,391.1c-22.6,0.9-36.6-22.4-37.5-51.8c-0.9-29.4,11.7-53.8,34.3-54.7c22.6-0.9,36.6,22.4,37.5,51.8
		C596.5,365.9,584,390.3,561.4,391.1"/>
	<g>
		<path class="st0" d="M139.6,511.6c0.4-6,0.5-10.5,0.5-10.7v-33.1c-8.9,5.6-17.6,10.3-35.5,14.6l-1.4-3.7
			c22.9-5.4,40.4-15.9,57.3-38.8l5.9,3.7c0.2,0.2,0.9,0.7,0.9,1.2c0,0.3-0.3,0.6-1,0.8c-0.9,0.3-1.3,0.6-1.8,1
			c-7.6,8.4-12.1,12.4-18.2,17v37c0,2.6,0.3,8.8,0.5,11H139.6z"/>
		<path class="st0" d="M192.7,503.6c4.3-0.6,10.5-1.4,18.7-4.4c7.8-2.8,15.1-6.7,21.7-11.6c14-10.5,19.2-21.5,21.8-27.1l3.1,2.5
			c-4.3,9.2-15,32.2-48.5,43.7c-2.1,0.8-12.2,3.5-13.4,4.3L192.7,503.6z M217.9,466.6c-7.6-9.6-13.1-13.6-23.2-17l2.5-3.6
			c11.2,3.4,19,8,26.7,14L217.9,466.6z"/>
		<path class="st0" d="M278.7,457.5c4.6,0.5,10.4,0.8,13.1,0.8h13.4c0.2-2.4,0.2-5,0.2-7.4c0-1.9,0-5.9-0.6-11.3l6.6,0.5
			c1,0.1,2.3,0.2,2.3,0.9c0,0.3,0,0.5-0.6,1.3c-0.7,0.8-0.8,1.1-0.8,1.7c0,4-0.1,8.6-0.5,14.3h15.6c2.7,0,11-0.3,15.7-0.9
			c-0.4,4-0.4,7.1-0.4,7.1c-0.1,7.9-0.3,19-3,30.5c-2.6,10.8-5.7,14.8-9.2,14.8c-2.1,0-6.3-1.8-15.5-6.4l1.8-3.5
			c3.4,1.7,8.7,4.2,11,4.2c2.5,0,4-4.7,4.5-6.6c3.6-12.4,3.9-23.6,4-35.4h-24.8c-1.7,15.9-4.6,25.4-12.4,34.4
			c-7.4,8.6-14.2,11-22.4,13.7l-1.5-4c6.5-0.5,12.1-4.6,15-7.2c12.5-11.5,14.1-27.7,14.9-36.8h-13.2c-3.6,0-10.1,0.4-13.1,0.8V457.5
			z"/>
		<path class="st0" d="M378.8,504.6c4.7-0.2,12.7-0.5,22.3-5.6c7-3.7,12-9.9,15-15.2c3.9-7,5.9-16.5,5.9-16.7c0-0.5-0.4-0.5-0.7-0.5
			h-43c-3.1,0-9,0.3-13.1,0.8v-5.4c4,0.4,10.4,0.8,13.1,0.8h36.3c1,0,8-0.4,11.4-1.1l3.8,3.9c-0.2,0.3-0.2,0.5-0.4,0.8
			c-0.5,1.1-2.7,8.7-3.3,10.3c-10.1,28.9-34.7,31-46.7,31.9L378.8,504.6z M374.8,444.3c4.5,0.5,10.9,0.8,13.1,0.8h19.9
			c3,0,9.5-0.3,13.1-0.8v5.4c-4.6-0.5-10.5-0.8-13.1-0.8H388c-3.1,0-9.1,0.3-13.1,0.8V444.3z"/>
		<path class="st0" d="M504.6,508.7c-3.7-2.6-10.9-7.5-23.8-11.9c-12.9-4.4-23.2-5.5-28.7-6l0.7-3.7c18.1,1.2,37.9,5.9,55,14.9
			L504.6,508.7z M499,457c-13.1-5.1-24.3-6.8-41.7-6.9l0.2-3.8c19.4,0.1,29.3,1,43.8,4.1L499,457z M496.5,479.8
			c-16-8.2-31-9.7-37-10.3l0.5-3.6c11.3,0.6,27.1,3.6,38.8,7.5L496.5,479.8z"/>
	</g>
</g>
</svg>
