<?xml version="1.0" encoding="utf-8"?>
<!-- Generator: Adobe Illustrator 25.4.1, SVG Export Plug-In . SVG Version: 6.00 Build 0)  -->
<svg version="1.1" id="Layer_1" xmlns="http://www.w3.org/2000/svg" xmlns:xlink="http://www.w3.org/1999/xlink" x="0px" y="0px"
	 viewBox="0 0 510.2 45.4" style="enable-background:new 0 0 510.2 45.4;" xml:space="preserve">
<style type="text/css">
	.st0{fill:#FFFFFF;}
</style>
<path class="st0" d="M37.3,2.1H1.6c-0.1,0-0.3,0.1-0.3,0.3L1,10.8h0.3c0.3-1.4,0.7-2.6,1-3.5c0.5-1.1,1.1-2,1.9-2.6
	c0.8-0.6,1.7-0.9,2.8-1c1-0.1,2.2-0.1,3.7-0.1h4.7c0.2,0,0.5,0,0.7,0.1c0.2,0.1,0.4,0.2,0.6,0.4C16.8,4.2,17,4.5,17,4.8
	c0.1,0.3,0.1,0.6,0.1,1v37.5c0,0.2,0.1,0.3,0.2,0.3c1.5,0,3-0.1,4.4-0.4V6.6V5.7c0-0.4,0-0.7,0.1-1C22,4.5,22.1,4.2,22.3,4
	c0.2-0.2,0.4-0.3,0.6-0.4c0.2-0.1,0.4-0.1,0.7-0.1h4.7c1.5,0,2.7,0,3.7,0.1c1.1,0.1,2,0.4,2.8,1c0.8,0.6,1.4,1.5,1.9,2.6
	c0.4,0.9,0.7,2.1,1,3.5H38l-0.4-8.3C37.6,2.3,37.4,2.1,37.3,2.1 M118.3,1.2c-0.1,0-0.5,0-1,0.1c-0.6,0.1-1.3,0.1-2.1,0.2
	c-0.8,0.1-1.8,0.2-2.9,0.4c-0.9,0.1-1.8,0.3-2.7,0.5l0,0.3c0.3,0,0.5,0,0.8,0c0.5,0,0.9,0.1,1.3,0.2c0.5,0.1,0.9,0.4,1.2,0.7
	c0.4,0.4,0.6,0.8,0.8,1.4c0.2,0.6,0.2,1.6,0.2,2.3v36c0,0.2,0.1,0.3,0.2,0.3c1.5,0,3-0.1,4.4-0.4V1.5C118.6,1.3,118.5,1.2,118.3,1.2
	 M124.7,19.1l17-17.1c-0.1,0-0.3,0-0.4,0c-0.4,0-0.8,0-1.2,0.1c-0.4,0-0.8,0.1-1.2,0.1c-0.4,0.1-0.7,0.1-1,0.2
	c-0.4,0.1-0.8,0.4-1.2,0.8l-16.2,18.1l17.2,22.4c0.2,0.2,0.2,0.3,0.6,0.3c0.1,0,0.5,0,0.9,0c0.5,0,1,0,1.6-0.1
	c0.6,0,1.2-0.1,1.8-0.1c0.5-0.1,0.9-0.1,1.3-0.2L124.7,19.1L124.7,19.1z M169.4,1.2c-0.1,0-0.5,0-1,0.1c-0.6,0.1-1.3,0.1-2.1,0.2
	c-0.8,0.1-1.8,0.2-2.9,0.4c-0.9,0.1-1.8,0.3-2.7,0.5l0,0.3c0.3,0,0.5,0,0.8,0c0.5,0,0.9,0.1,1.3,0.2c0.5,0.1,0.9,0.4,1.2,0.7
	c0.4,0.4,0.6,0.8,0.8,1.4c0.2,0.6,0.2,1.2,0.2,1.9l0,36.5c0,0.2,0.1,0.3,0.2,0.3c1.5,0,3-0.1,4.4-0.4V1.5
	C169.7,1.3,169.5,1.2,169.4,1.2 M72.7,1.7c-12,0-18.4,9.5-18.4,21.2c0,11.7,6.4,21.2,18.4,21.2c12,0,18.4-9.5,18.4-21.2
	C91.1,11.2,84.6,1.7,72.7,1.7 M73.3,42.8c-8.4,0.3-13.7-8.4-14-19.4C58.9,12.5,63.6,3.4,72,3c8.4-0.3,13.7,8.4,14,19.4
	C86.4,33.4,81.7,42.5,73.3,42.8 M209.3,1.7c-12,0-18.4,9.5-18.4,21.2c0,11.7,6.4,21.2,18.4,21.2c12,0,18.4-9.5,18.4-21.2
	C227.7,11.2,221.3,1.7,209.3,1.7 M209.9,42.8c-8.4,0.3-13.7-8.4-14-19.4c-0.3-11,4.4-20.1,12.8-20.4c8.4-0.3,13.7,8.4,14,19.4
	C223,33.4,218.4,42.5,209.9,42.8"/>
<g>
	<path class="st0" d="M290.9,44.1c0.3-3.6,0.3-6.2,0.3-6.3V18.2c-5.3,3.3-10.4,6.1-21.1,8.6l-0.9-2.2c13.6-3.2,23.9-9.5,33.9-23
		l3.5,2.2c0.1,0.1,0.5,0.4,0.5,0.7c0,0.2-0.1,0.4-0.6,0.5c-0.6,0.2-0.8,0.3-1.1,0.6c-4.5,5-7.2,7.3-10.8,10.1v21.9
		c0,1.6,0.2,5.2,0.3,6.5H290.9z"/>
	<path class="st0" d="M322.4,39.3c2.6-0.4,6.2-0.9,11.1-2.6c4.6-1.7,9-4,12.9-6.9c8.3-6.2,11.4-12.8,12.9-16.1l1.9,1.5
		c-2.6,5.4-8.9,19.1-28.8,25.9c-1.3,0.5-7.2,2.1-8,2.6L322.4,39.3z M337.3,17.5c-4.5-5.7-7.7-8-13.8-10.1l1.5-2.1
		c6.6,2,11.3,4.7,15.8,8.3L337.3,17.5z"/>
	<path class="st0" d="M373.3,12c2.7,0.3,6.2,0.5,7.7,0.5h7.9c0.1-1.4,0.1-3,0.1-4.4c0-1.2,0-3.5-0.4-6.7l3.9,0.3
		c0.6,0.1,1.4,0.1,1.4,0.5c0,0.1,0,0.3-0.4,0.8c-0.4,0.5-0.4,0.7-0.5,1c0,2.4-0.1,5.1-0.3,8.5h9.2c1.6,0,6.5-0.2,9.3-0.5
		c-0.2,2.4-0.2,4.2-0.2,4.2c0,4.7-0.1,11.3-1.8,18.1c-1.6,6.4-3.4,8.8-5.4,8.8c-1.3,0-3.7-1.1-9.2-3.8l1.1-2.1c2,1,5.1,2.5,6.5,2.5
		c1.5,0,2.4-2.8,2.7-3.9c2.2-7.3,2.3-14,2.4-21h-14.7c-1,9.4-2.7,15-7.3,20.4c-4.4,5.1-8.4,6.5-13.3,8.1l-0.9-2.4
		c3.9-0.3,7.2-2.7,8.9-4.3c7.4-6.8,8.3-16.4,8.9-21.8h-7.8c-2.1,0-6,0.2-7.7,0.5V12z"/>
	<path class="st0" d="M432.7,39.9c2.8-0.1,7.5-0.3,13.2-3.3c4.2-2.2,7.1-5.9,8.9-9c2.3-4.1,3.5-9.8,3.5-9.9c0-0.3-0.3-0.3-0.4-0.3
		h-25.5c-1.9,0-5.3,0.2-7.8,0.5v-3.2c2.4,0.3,6.2,0.5,7.8,0.5H454c0.6,0,4.7-0.2,6.7-0.7l2.3,2.3c-0.1,0.2-0.1,0.3-0.2,0.5
		c-0.3,0.7-1.6,5.1-2,6.1c-6,17.1-20.6,18.4-27.7,18.9L432.7,39.9z M430.3,4.2c2.7,0.3,6.4,0.5,7.8,0.5H450c1.8,0,5.6-0.2,7.8-0.5
		v3.2C455,7.1,451.5,7,450,7h-11.8c-1.8,0-5.4,0.2-7.8,0.5V4.2z"/>
	<path class="st0" d="M507.3,42.4c-2.2-1.6-6.5-4.5-14.1-7c-7.6-2.6-13.8-3.3-17-3.6l0.4-2.2c10.7,0.7,22.5,3.5,32.6,8.8L507.3,42.4
		z M504,11.7c-7.8-3-14.4-4-24.7-4.1l0.1-2.3c11.5,0,17.4,0.6,25.9,2.4L504,11.7z M502.5,25.2c-9.5-4.9-18.4-5.7-21.9-6.1l0.3-2.2
		c6.7,0.3,16.1,2.2,23,4.4L502.5,25.2z"/>
</g>
</svg>
